<svg width="82" height="24" viewBox="0 0 82 24" fill="none" xmlns="http://www.w3.org/2000/svg">
<path d="M12.756 11.522C14.32 11.8167 15.5893 12.3947 16.564 13.256C17.5613 14.1173 18.06 15.4093 18.06 17.132C18.06 19.648 17.1533 21.4273 15.34 22.47C13.5493 23.49 11.0333 24 7.792 24H0.21V0.437999H6.874C10.1833 0.437999 12.7107 0.913999 14.456 1.866C16.2013 2.79533 17.074 4.32533 17.074 6.456C17.074 7.83867 16.6547 8.96067 15.816 9.822C15 10.6607 13.98 11.2273 12.756 11.522ZM5.786 4.382V9.856H7.86C10.2173 9.856 11.396 8.904 11.396 7C11.396 6.048 11.0787 5.37933 10.444 4.994C9.80933 4.586 8.80067 4.382 7.418 4.382H5.786ZM7.826 19.954C9.29933 19.954 10.41 19.7387 11.158 19.308C11.9287 18.8547 12.314 18.0273 12.314 16.826C12.314 14.65 10.954 13.562 8.234 13.562H5.786V19.954H7.826ZM33.4384 24L32.2144 18.934H25.3464L24.1564 24H18.3764L25.4824 0.437999H32.2484L39.3544 24H33.4384ZM26.2984 14.888H31.2624L28.7804 4.484L26.2984 14.888ZM48.835 14.99H46.659V24H41.083V0.437999H48.801C52.0197 0.437999 54.4337 1.02733 56.043 2.206C57.675 3.38467 58.491 5.18667 58.491 7.612C58.491 9.13067 58.1284 10.4 57.403 11.42C56.6777 12.4173 55.533 13.2673 53.969 13.97L59.953 24H53.663L48.835 14.99ZM46.659 11.148H49.005C50.2517 11.148 51.181 10.8647 51.793 10.298C52.4277 9.73133 52.745 8.836 52.745 7.612C52.745 6.47867 52.405 5.65133 51.725 5.13C51.0677 4.60867 50.0477 4.348 48.665 4.348H46.659V11.148ZM67.6434 0.437999V24H62.0674V0.437999H67.6434ZM81.1754 0.437999L73.6614 11.012L81.7874 24H75.3274L67.8134 11.42L75.2934 0.437999H81.1754Z" fill="white"/>
</svg>
